<?xml version="1.0" encoding="utf-8"?>
<!-- Generator: Adobe Illustrator 16.0.0, SVG Export Plug-In . SVG Version: 6.00 Build 0)  -->
<!DOCTYPE svg PUBLIC "-//W3C//DTD SVG 1.1//EN" "http://www.w3.org/Graphics/SVG/1.1/DTD/svg11.dtd">
<svg version="1.1" id="Capa_1" xmlns="http://www.w3.org/2000/svg" xmlns:xlink="http://www.w3.org/1999/xlink" x="0px" y="0px"
	 width="488.268px" height="488.268px" viewBox="0 0 488.268 488.268" enable-background="new 0 0 488.268 488.268"
	 xml:space="preserve">
<path fill="#452821" d="M432.721,367.738l-0.267-0.144V171.277h43.404v-21.071h-0.452L244.134,60.134L12.41,150.207v21.071h43.404
	v196.317l-0.267,0.144l-55.652,30.147v30.248h488.477v-30.248L432.721,367.738z"/>
<g>
	<path fill="#FFFFFF" d="M402.924,187.779H385.4c-4.563,0-16.503,4.975-16.503,9.21v153.776c0,4.246,11.939,7.727,16.503,7.727
		h17.523v34.142H289.502v-34.142h22.689V199.155h-3.948l-54.599,193.478h-42.273l-53.892-193.478h-4.083v159.336h22.68v34.142
		H85.344v-34.142h12.584c4.94,0,10.097-3.479,10.097-7.727V196.989c0-4.236-5.157-9.21-10.097-9.21H85.344v-34.146h117.588
		l38.395,136.569h1.031l38.772-136.569h121.794V187.779z"/>
</g>
</svg>
